HIERARCHY
ROOT Hips
{
  OFFSET -35.2597 29.1586 114.425
  CHANNELS 6 Xposition Yposition Zposition Zrotation Xrotation Yrotation
  JOINT LeftUpLeg
  {
    OFFSET 8.64259 1.95398 -2.38835
    CHANNELS 3 Zrotation Xrotation Yrotation
    JOINT LeftLeg
    {
      OFFSET 43.7702 0 0
      CHANNELS 3 Zrotation Xrotation Yrotation
      JOINT LeftFoot
      {
        OFFSET 40.6238 0 0
        CHANNELS 3 Zrotation Xrotation Yrotation
        JOINT LeftToeBase
        {
          OFFSET 12.7242 0 0
          CHANNELS 3 Zrotation Xrotation Yrotation
          End Site
          {
            OFFSET 0 0 0
          }
        }
      }
    }
  }
  JOINT RightUpLeg
  {
    OFFSET -8.2249 1.95398 -2.59336
    CHANNELS 3 Zrotation Xrotation Yrotation
    JOINT RightLeg
    {
      OFFSET 43.5653 0 0
      CHANNELS 3 Zrotation Xrotation Yrotation
      JOINT RightFoot
      {
        OFFSET 40.6238 0 0
        CHANNELS 3 Zrotation Xrotation Yrotation
        JOINT RightToeBase
        {
          OFFSET 12.7242 0 0
          CHANNELS 3 Zrotation Xrotation Yrotation
          End Site
          {
            OFFSET 0 0 0
          }
        }
      }
    }
  }
  JOINT Spine
  {
    OFFSET 0.165834 0.87714 6.61349
    CHANNELS 3 Zrotation Xrotation Yrotation
    JOINT Spine1
    {
      OFFSET 7.38963 1.71661e-005 0
      CHANNELS 3 Zrotation Xrotation Yrotation
      JOINT Spine2
      {
        OFFSET 11.9445 1.14441e-005 0
        CHANNELS 3 Zrotation Xrotation Yrotation
        JOINT Spine3
        {
          OFFSET 14.7254 4.19617e-005 0
          CHANNELS 3 Zrotation Xrotation Yrotation
          JOINT Spine4
          {
            OFFSET 10.9679 0 0
            CHANNELS 3 Zrotation Xrotation Yrotation
            JOINT RightShoulder
            {
              OFFSET 2.46616 -1.6653 3.69651
              CHANNELS 3 Zrotation Xrotation Yrotation
              JOINT RightArm
              {
                OFFSET 13.0012 0 0
                CHANNELS 3 Zrotation Xrotation Yrotation
                JOINT RightForeArm
                {
                  OFFSET 28.7848 1.62311e-005 0
                  CHANNELS 3 Zrotation Xrotation Yrotation
                  JOINT RightHand
                  {
                    OFFSET 26.5688 1.62095e-005 0
                    CHANNELS 3 Zrotation Xrotation Yrotation
                    End Site
                    {
                      OFFSET 0 0 0
                    }
                  }
                }
              }
            }
            JOINT LeftShoulder
            {
              OFFSET 2.38034 -1.29275 -3.7523
              CHANNELS 3 Zrotation Xrotation Yrotation
              JOINT LeftArm
              {
                OFFSET 16.3182 6.07031e-005 0
                CHANNELS 3 Zrotation Xrotation Yrotation
                JOINT LeftForeArm
                {
                  OFFSET 27.0901 0 0
                  CHANNELS 3 Zrotation Xrotation Yrotation
                  JOINT LeftHand
                  {
                    OFFSET 24.5451 1.51738e-005 0
                    CHANNELS 3 Zrotation Xrotation Yrotation
                    End Site
                    {
                      OFFSET 0 0 0
                    }
                  }
                }
              }
            }
            JOINT Neck
            {
              OFFSET 5.0226 -0.0266342 0
              CHANNELS 3 Zrotation Xrotation Yrotation
              JOINT Head
              {
                OFFSET 6.69364 2.86102e-005 0
                CHANNELS 3 Zrotation Xrotation Yrotation
                End Site
                {
                  OFFSET 0 0 0
                }
              }
            }
          }
        }
      }
    }
  }
}
MOTION
Frames:	18
Frame Time:	0.0416667
42.6312 83.8857 10.5968 88.836 -27.0276 99.4399 -157.224 24.2871 75.5676 -54.2137 6.02705 -14.3978 86.8585 20.8057 4.99077 4.45391 -3.22872 -12.9979 -178.732 17.9763 80.1613 -78.1296 -24.8035 -8.86729 69.8835 -6.33903 -1.1519 26.0634 -1.2087 7.51507 0.287631 8.54631 -92.5206 9.74322 -0.566947 -4.95432 -1.93691 -0.78419 -4.92469 -24.3979 0.946352 -4.89618 -4.38527 0.94637 -4.89617 91.0033 -32.7322 -103.832 34.7042 -0.907909 -3.64622 -50.8099 -24.7266 -71.6206 -31.7738 11.6631 -45.4328 -85.6008 -53.7801 85.8471 -22.0156 -14.4571 40.0246 52.9474 20.9108 -75.7003 18.7979 -5.09762 -30.6989 12.8691 26.1598 1.54479 -13.0147 22.9503 23.6381 
45.5869 84.1654 11.3197 88.0695 -21.1207 96.8853 -159.661 19.2599 74.0165 -49.8785 11.3324 -14.231 85.3947 22.4363 9.9483 5.66642 0.398721 -17.2212 -172.293 20.7746 79.7653 -86.15 -10.6463 -9.29772 71.1374 -7.55668 -5.71393 15.5632 1.5841 9.76826 -0.051177 8.61723 -92.1437 9.60106 -1.06916 -4.16843 -2.07593 -1.25141 -4.11748 -24.5575 0.231781 -4.2969 -4.54487 0.231802 -4.29689 89.9315 -34.8362 -105.159 33.1946 5.56838 -1.00613 -42.7048 -29.2781 -61.8105 -32.4736 11.4143 -43.7739 -86.28 -55.7549 85.1386 -22.6034 -13.5773 28.159 49.8272 22.2873 -72.8758 24.0235 -5.92516 -28.9502 14.3029 26.7407 2.67369 -11.1982 23.7 21.3719 
48.3555 84.2963 11.6862 87.0149 -14.5388 95.6021 -162.606 14.9231 73.6751 -47.8829 11.9234 -12.9732 89.9027 23.8363 4.11618 -1.02016 -0.703983 -19.0129 -166.445 25.0196 79.9094 -93.7534 -2.11017 -8.76719 73.7228 -10.1112 -8.50151 9.91879 3.2074 10.5869 -0.461183 8.6309 -91.9746 9.56658 -1.80991 -3.77654 -2.10835 -1.97427 -3.69338 -24.6013 -0.592346 -4.14525 -4.58864 -0.592342 -4.14525 89.8326 -35.8335 -105.01 30.5294 10.7506 0.518578 -36.931 -36.8909 -50.45 -34.1201 11.6812 -42.7139 -86.6377 -57.2973 84.8491 -21.7145 -14.0648 16.4659 48.4799 22.445 -71.8906 24.8305 -7.22294 -33.2615 15.0465 27.2096 4.11483 -9.81901 24.1177 19.44 
50.9162 84.2284 11.9817 85.4981 -7.60321 95.1128 -164.939 11.7499 73.8742 -45.2643 16.8078 -12.2035 90.4809 25.636 6.09493 -2.94161 1.63115 -22.7009 -162.046 31.0138 78.9903 -99.5443 0.42774 -7.92728 75.7347 -12.0268 -9.64061 11.9237 3.29574 8.88045 -0.829855 8.63144 -91.9367 9.55652 -2.52769 -3.64655 -2.11676 -2.68562 -3.53192 -24.6178 -1.31601 -4.23663 -4.60512 -1.31602 -4.23664 90.8814 -36.0489 -103.024 28.734 13.0948 -0.885906 -22.6109 -42.887 -29.7454 -36.764 13.4345 -44.7678 -86.9602 -56.5905 84.2997 -22.1573 -12.7426 8.19055 45.8596 17.8592 -73.9324 24.7367 -7.80072 -35.6232 16.5851 27.4294 4.26095 -8.6366 24.3899 19.0427 
53.655 83.9671 12.4262 84.6887 -0.466215 95.5152 -167.054 8.47466 75.0518 -44.866 19.5919 -10.5959 93.0257 26.7726 3.83158 -4.99392 0.907996 -22.6242 -159.642 37.492 77.672 -102.566 -1.45625 -7.32937 76.4039 -12.8577 -10.9702 14.3688 2.11598 9.54726 -1.25958 8.8026 -91.9479 9.20201 -3.3844 -3.61646 -2.46917 -3.5402 -3.46412 -24.9807 -2.14227 -4.46516 -4.96806 -2.14228 -4.46516 91.3132 -35.9731 -102.255 28.259 13.7669 -3.71301 -4.02941 -42.2704 -3.52895 -40.7648 15.3418 -45.6548 -87.4689 -54.7316 83.3006 -21.5615 -12.7873 1.75689 42.8687 11.5342 -78.2928 24.3604 -8.39132 -38.1867 19.4526 27.11 2.89129 -8.01389 24.3215 19.7542 
56.6308 83.8059 12.7492 84.389 6.24663 95.955 -169.514 5.30089 76.6297 -45.0503 22.3143 -8.28324 94.3048 27.5031 2.94106 -5.44465 1.64796 -23.6644 -159.061 43.8257 76.6861 -101.465 -0.834259 -7.14394 80.0858 -14.385 -8.00602 14.3783 2.70226 8.19184 -1.66626 8.89905 -91.9845 8.99581 -4.20881 -3.63849 -2.6729 -4.36479 -3.44975 -25.1973 -2.92205 -4.73391 -5.18469 -2.92206 -4.73392 91.4305 -35.6046 -102.147 28.8716 14.4847 7.80403 -4.96731 -36.7713 -5.2661 -38.8095 14.1801 -44.7038 -87.884 -51.9643 82.2425 -20.4452 -15.4617 -4.17795 40.1176 6.57992 -82.7163 21.1466 -8.5085 -43.4517 20.8219 26.2534 1.07851 -7.2976 24.0182 20.2559 
60.0724 83.7067 12.6454 83.4329 11.3468 97.3539 -171.76 2.28816 78.4594 -43.9514 24.3053 -5.93079 94.0576 27.5113 3.0115 1.31882 1.9315 -21.3363 -159.704 50.2319 75.9947 -96.0007 -1.93772 -7.29557 83.0746 -15.2665 -5.41857 19.1298 1.2013 7.61597 -1.98225 8.92817 -92.117 8.92112 -4.8971 -3.85785 -2.74568 -5.06204 -3.6385 -25.278 -3.51289 -5.14989 -5.26534 -3.51287 -5.14989 91.8221 -35.2656 -101.519 29.7058 15.0515 16.6024 -4.76829 -33.292 -5.17132 -38.0721 14.844 -47.2006 -87.5931 -49.3407 82.2191 -19.9678 -18.3503 -11.6449 39.0415 4.53221 -84.8941 23.2613 -10.3528 -47.4538 22.1972 25.757 -0.876496 -7.88855 23.9676 20.7823 
64.4317 84.1637 11.8123 82.4717 14.2299 99.5465 -173.002 -1.00392 80.6995 -40.8971 31.3949 -4.51662 86.0047 24.8661 11.2802 11.8765 3.08109 -18.146 -162.605 54.8763 78.0701 -86.2252 -3.39047 -7.33455 84.3818 -14.6529 -1.96324 22.6472 0.909906 4.83684 -2.17444 8.99537 -92.3977 8.76046 -5.40247 -4.38855 -2.90585 -5.5902 -4.14646 -25.4331 -3.83615 -5.8072 -5.42046 -3.83613 -5.80719 92.5234 -34.6352 -100.385 30.361 15.3953 21.6978 -4.50273 -30.8666 -4.84899 -37.9887 15.3637 -48.6386 -86.873 -46.7333 82.8666 -20.2307 -20.2498 -14.0508 34.7868 0.662 -89.171 26.1172 -11.3712 -46.8888 23.4073 25.9544 -0.484888 -8.17254 24.012 19.9436 
69.6327 84.8747 10.1076 81.5485 14.7383 100.754 -175.217 -4.55707 80.5657 -36.7714 31.0871 -2.59833 78.81 19.5871 14.4844 18.437 8.17138 -23.6659 -165.555 56.7746 80.6179 -74.5121 -8.90635 -7.21033 83.6536 -13.0489 2.17739 26.6807 -0.217851 3.56366 -2.21633 8.94856 -92.5926 8.83925 -5.57393 -4.75843 -2.82755 -5.77774 -4.50851 -25.3462 -3.88914 -6.21079 -5.33353 -3.88915 -6.2108 92.4513 -34.2959 -100.611 27.1728 16.3338 28.9788 -8.09128 -36.2131 -10.5684 -37.9925 15.7537 -49.6606 -86.4276 -43.5646 83.024 -20.6182 -20.662 -11.1958 30.3341 -2.43186 -94.6027 27.4118 -11.8462 -46.7101 23.6443 26.1755 0.0256107 -8.55616 24.0123 19.7885 
75.7151 85.7853 7.70353 80.9944 14.6226 102.122 -177.095 -6.61313 80.7248 -35.0858 26.1216 -0.366977 70.1546 9.20502 7.98599 22.0885 11.6451 -29.2788 -169.675 54.695 84.8627 -62.6281 -19.9545 -6.72207 83.0772 -14.2417 0.708314 28.9122 -0.832586 2.64974 -2.169 8.84488 -92.8206 9.03065 -5.58494 -5.19774 -2.63771 -5.80801 -4.94707 -25.1402 -3.76844 -6.6321 -5.12755 -3.76843 -6.63211 92.2343 -33.9261 -101.127 22.9185 17.4468 38.8342 -19.6823 -39.1306 -27.4663 -35.3203 14.5624 -49.6432 -86.0746 -43.7356 83.625 -20.6398 -18.0708 -7.34115 28.0949 -4.32279 -98.2894 29.3529 -13.0466 -47.932 23.4896 26.2482 0.653135 -9.10201 23.8383 19.3521 
81.8731 86.1668 5.35047 80.9968 14.0675 102.906 -177.37 -6.53599 81.2553 -36.9948 26.1021 0.325053 59.9757 0.227086 4.94103 23.7041 8.6762 -22.2046 -172.873 50.4966 88.951 -52.554 -25.3345 -5.86072 81.3365 -14.4281 -1.66416 28.2766 -0.203587 1.39114 -2.02009 8.78398 -92.8933 9.15247 -5.32321 -5.35323 -2.51763 -5.55334 -5.11405 -25.0079 -3.47233 -6.70142 -4.99531 -3.47233 -6.70142 91.1036 -34.7614 -103.005 17.1188 19.3515 43.6013 -32.5216 -41.9249 -42.4156 -35.8451 14.5122 -48.8711 -85.9882 -45.522 84.0591 -20.3588 -12.6118 -3.14043 30.0012 -5.53992 -99.9885 32.6886 -14.811 -48.8595 24.6164 26.1663 0.444855 -10.0717 23.7531 17.9384 
87.0841 85.735 3.50127 80.9501 13.4678 102.707 -176.556 -2.78544 81.6561 -44.5386 27.4949 -0.0158074 52.6609 -5.21655 0.333284 25.4683 1.62805 -6.84903 -170.179 49.597 88.3244 -55.1929 -30.0929 -8.49039 71.9639 -7.18255 1.84456 30.8042 -1.88032 3.57889 -1.82492 8.72421 -92.7179 9.29286 -4.85815 -5.0312 -2.3779 -5.07463 -4.81278 -24.8704 -3.12485 -6.25526 -4.85779 -3.12485 -6.25525 90.6025 -32.5767 -104.652 18.3739 19.6876 42.567 -41.3871 -40.6128 -52.7808 -37.5389 14.2144 -46.136 -86.4924 -48.6553 83.7798 -20.4169 -7.00098 4.63253 33.6252 -7.02161 -101.204 31.1396 -14.5142 -49.9728 26.1751 25.8076 -0.431427 -9.99383 23.7025 17.2749 
92.1414 84.7935 1.63035 82.0895 14.2316 102.562 -174.477 4.45799 82.9379 -62.0249 29.9125 0.261445 50.9557 -6.82744 0.835196 32.125 5.4752 -9.26931 -168.17 45.8755 88.1273 -58.3841 -20.7395 -8.97464 77.1844 -10.1904 2.80299 38.4012 -4.4007 2.01991 -1.50207 8.80296 -92.4737 9.16571 -4.10289 -4.60779 -2.50628 -4.30152 -4.42301 -24.9997 -2.53089 -5.62532 -4.98709 -2.53089 -5.62533 89.0756 -33.9208 -107.071 16.5746 21.2962 39.7011 -46.1503 -36.9301 -59.5693 -39.5194 14.6433 -45.1322 -87.8622 -51.4752 82.1924 -22.0546 -0.861382 10.2666 35.9838 -4.79091 -97.903 29.3482 -13.5876 -49.656 27.3629 24.4157 -0.103134 -8.55773 22.498 15.5152 
96.5385 84.6773 -0.550093 83.196 15.8291 103.994 -172.414 14.2474 85.8153 -79.3733 29.2621 1.6822 53.5646 -5.14569 2.52147 23.5224 1.30957 -7.37673 -170.13 41.8622 90.0988 -59.5159 -18.1462 -8.00276 80.5747 -12.3114 3.58456 37.8879 -4.10196 1.547 -1.02666 8.85415 -92.3923 9.08157 -3.11668 -4.5195 -2.59302 -3.31238 -4.37823 -25.0755 -1.61647 -5.24536 -5.06282 -1.61646 -5.24536 88.4911 -34.8234 -107.82 14.4145 23.788 33.5744 -55.6858 -36.3474 -67.9504 -40.5098 15.2218 -45.5823 -88.5098 -55.0161 81.8646 -25.1041 1.87401 13.1463 40.6031 -0.152538 -90.1057 23.2306 -10.2416 -46.9217 27.0692 22.5147 0.829143 -6.17634 20.6898 13.6487 
100.589 84.6147 -2.8543 83.75 18.8889 105.014 -171.729 25.4087 87.8906 -92.936 23.6432 2.97733 55.2571 -3.90199 2.85404 22.6732 -0.552665 -4.59789 -174.204 37.0622 90.7805 -59.3137 -18.2294 -6.39544 83.9943 -14.6653 3.77331 40.2764 -5.09943 1.99939 -0.625105 8.94465 -92.3889 8.91544 -2.31083 -4.57215 -2.7611 -2.50961 -4.46628 -25.2351 -0.831907 -5.05401 -5.22246 -0.831896 -5.054 87.9343 -33.3701 -109.414 14.0578 26.2414 27.0443 -59.4641 -31.3554 -73.2922 -37.7333 14.5407 -46.777 -88.9162 -58.1769 81.8396 -27.7854 1.35093 17.6623 41.9356 5.24815 -84.7898 22.1944 -9.04873 -43.9495 26.9098 20.4708 2.71496 -3.29138 18.4059 10.6998 
104.803 84.4497 -5.28393 83.0268 20.4303 105.756 -170.299 37.7703 88.7457 -101.231 17.9816 3.48305 58.2664 -1.57727 5.83794 19.6684 0.677054 -9.2158 -176.567 33.3453 90.7409 -58.9316 -18.28 -5.64025 87.1107 -17.0078 3.7024 40.8465 -5.28537 1.78711 -0.0575859 8.81899 -92.2703 9.19332 -1.13114 -4.41609 -2.48446 -1.3242 -4.36218 -24.9593 0.246863 -4.5517 -4.94666 0.246886 -4.55169 88.6892 -30.8121 -109.01 15.9745 26.8632 16.206 -63.0366 -29.328 -76.5794 -38.4551 15.0318 -47.2692 -88.9786 -59.4503 81.9681 -27.4986 -2.32165 29.5638 40.1324 4.07891 -86.1957 16.0019 -6.8579 -44.5077 27.2757 18.0763 3.3787 -2.63626 15.9251 8.74482 
109.052 84.5162 -7.99725 83.1826 21.9353 104.91 -168.673 47.6256 88.0719 -103.869 16.619 3.61099 63.3557 2.2306 7.87231 19.8008 0.761292 -9.26939 -178.161 28.0574 89.4484 -57.1541 -16.5572 -5.5388 90.3899 -18.8942 5.43072 42.8131 -5.96378 1.29074 0.57482 8.72964 -91.9791 9.40247 0.256534 -3.94146 -2.27445 0.0829457 -3.94892 -24.7665 1.42846 -3.68282 -4.75389 1.42845 -3.68282 90.1456 -27.5654 -107.422 18.1798 28.0209 10.3764 -69.2463 -21.7507 -83.1206 -35.5525 15.1049 -50.8666 -88.3302 -57.2472 82.4932 -26.5827 -4.69862 45.3005 37.309 -1.43348 -91.4848 10.8448 -5.36791 -47.6292 27.1543 14.6898 3.43789 -2.12576 12.6993 7.80757 
113.686 85.0651 -11.4936 83.3397 23.8759 103.457 -167.187 54.5263 86.4522 -100.621 16.5715 3.09363 68.0062 5.66517 8.45438 22.8186 1.77213 -8.8379 179.341 20.9763 87.317 -52.6262 -15.6663 -5.4471 92.6825 -20.2827 6.52216 43.1188 -6.15878 1.83808 1.12939 8.54158 -91.6811 9.80141 1.48981 -3.45342 -1.87345 1.33646 -3.51555 -24.3884 2.45844 -2.84676 -4.37578 2.45843 -2.84676 91.4834 -23.6994 -106.172 20.7954 28.2251 7.90653 -69.225 -12.1795 -86.7818 -32.8934 15.0979 -54.3863 -87.4406 -55.1056 83.4004 -22.3886 -12.4254 59.7517 43.8208 -6.03554 -97.5768 5.36655 -3.74147 -55.248 25.9559 11.1854 4.11899 -1.76622 9.17848 6.69741 
